<?xml version="1.0" encoding="utf-8"?>
<!-- Generator: Adobe Illustrator 21.1.0, SVG Export Plug-In . SVG Version: 6.00 Build 0)  -->
<svg version="1.1" id="Ebene_1" xmlns="http://www.w3.org/2000/svg" xmlns:xlink="http://www.w3.org/1999/xlink" x="0px" y="0px"
	 viewBox="0 0 495 80" style="enable-background:new 0 0 495 80;" xml:space="preserve">
<path d="M91.9,27.5h-8.1v14.2h8.1c4,0,7.1-3.1,7.1-7.1C99,30.6,95.9,27.5,91.9,27.5z M91.9,27.5h-8.1v14.2h8.1c4,0,7.1-3.1,7.1-7.1
	C99,30.6,95.9,27.5,91.9,27.5z M0,0v80h176V0H0z M63.7,41.3C63.7,54.9,52.6,66,39,66c-13.7,0-24.7-11.1-24.7-24.8
	c0-13.7,11-24.8,24.7-24.8c6.8,0,12.9,2.8,17.4,7.2l-9.2,9.1c-2.1-2-4.9-3.3-8.3-3.3c-6.2,0-11.7,4.9-11.7,11.7S32.9,53,39,53
	c3.9,0,7.5-1.9,9.6-4.9H39v-8.7h24.8V41.3z M92,52.9h-8.1V66h-13V16.5h20.9c10,0,18.2,8.2,18.2,18.2C109.9,44.7,101.8,52.9,92,52.9z
	 M155.9,46.5c0,10.9-8.8,19.5-19.5,19.5c-10.9,0-19.5-8.7-19.5-19.5v-30h13.1v29.8c0,3.6,2.9,6.5,6.5,6.5c3.6,0,6.5-2.9,6.5-6.5
	V16.5h13.1V46.5z M91.9,27.5h-8.1v14.2h8.1c4,0,7.1-3.1,7.1-7.1C99,30.6,95.9,27.5,91.9,27.5z"/>
<g>
	<path d="M241.7,16.5l-20.1,18.3l-20.2-18.3h-5.9V66h13.1V40.7l13,11.8l12.9-11.8V66h13.1V16.5H241.7z"/>
	<path d="M283.2,16.5h-5.9L254.3,66h13l3-6.5h20.3l3,6.5h13L283.2,16.5z M275.3,48.6l5.1-10.9l5,10.9H275.3z"/>
	<path d="M308.8,16.4v12.9h12.9V66h13V29.4h13.1V16.4H308.8z"/>
	<path d="M390,48c3.6-3.3,5.9-8,5.9-13.3c0-10-8.2-18.2-18.2-18.2h-20.9V66h13V52.9h8l7.7,13.1h15L390,48z M377.8,41.6h-8V27.5h8
		c4,0,7.1,3.2,7.1,7.1C384.9,38.5,381.8,41.6,377.8,41.6z"/>
	<path d="M406.8,16.5V66h13V16.5H406.8z"/>
	<path d="M459.4,40.2l16.5-23.7H460l-8.6,12.3l-8.6-12.3H427l16.5,23.7L425.3,66h15.8l10.3-14.5L461.7,66h15.8L459.4,40.2z"/>
</g>
</svg>
